<?xml version="1.0" encoding="UTF-8" standalone="no"?>
<!-- Created with Inkscape (http://www.inkscape.org/) -->

<svg
   width="104.00014"
   height="104.00043"
   viewBox="0 0 27.516704 27.516779"
   version="1.1"
   id="svg5"
   xml:space="preserve"
   xmlns:xlink="http://www.w3.org/1999/xlink"
   xmlns="http://www.w3.org/2000/svg"
   xmlns:svg="http://www.w3.org/2000/svg"
   xmlns:rdf="http://www.w3.org/1999/02/22-rdf-syntax-ns#"
   xmlns:cc="http://creativecommons.org/ns#"
   xmlns:dc="http://purl.org/dc/elements/1.1/"><title
     id="title4279">Gutkato, koro, neduumuloj</title><defs
     id="defs2"><clipPath
       clipPathUnits="userSpaceOnUse"
       id="clipPath9018"><path
         style="fill:#ff2626;fill-opacity:1;stroke:none;stroke-width:0.144126;stroke-linecap:round;stroke-linejoin:round;stroke-dasharray:none;stroke-opacity:1;stop-color:#000000"
         d="M 32.419094,18.891096 C 16.111513,18.891094 4.3652701,39.200756 19.18441,53.769202 32.418703,66.779611 40.201862,73.083579 49.669643,82.391176 59.137407,73.083571 66.920571,66.779605 80.154866,53.769199 94.974008,39.200749 83.227761,18.89109 66.920176,18.891092 c -8.063926,-1e-6 -13.065415,5.62522 -17.250531,9.739574 -4.185132,-4.114349 -9.186623,-9.739573 -17.250551,-9.73957 z"
         id="path9020" /></clipPath></defs><g
     id="layer1"
     transform="translate(-3.1749809,-3.1749437)"><path
       style="fill:#ffdb26;fill-opacity:1;stroke:#000000;stroke-width:1.05833;stroke-linecap:round;stroke-linejoin:round;stroke-dasharray:none;paint-order:normal;stop-color:#000000"
       d="M 6.3460128,10.987509 C 6.0131876,8.1033126 6.9112569,5.0355095 7.1713329,3.7040818 c 1.6823697,0.883682 3.1509471,1.8173157 5.1540591,3.4426941 3.460025,-0.9271224 7.675181,-0.4344139 10.458981,0.611344 2.188665,-1.101117 4.320882,-1.7567683 7.249119,-1.9517024 0.321474,1.7913943 -0.0283,5.5961075 -1.06115,7.5149165 1.483302,5.222627 1.500916,12.296756 -0.04318,13.840869 C 24.518229,31.573194 5.6799495,31.273305 4.0639285,25.242152 3.064468,21.512066 4.2865251,13.752064 6.3460128,10.987509 Z"
       id="path236" /><ellipse
       style="fill:#000000;fill-opacity:1;stroke:none;stroke-width:2.11668;stroke-linecap:round;stroke-linejoin:round;stroke-dasharray:none;paint-order:stroke markers fill;stop-color:#000000"
       id="path6982"
       cx="12.96371"
       cy="12.570978"
       rx="1.6752723"
       ry="2.1418331"
       transform="rotate(8)" /><use
       x="0"
       y="0"
       xlink:href="#path6982"
       id="use7712"
       transform="translate(8.953004,0.69247082)"
       style="stroke-width:1.07136" /><path
       style="fill:none;fill-opacity:1;stroke:#000000;stroke-width:0.79375;stroke-linecap:round;stroke-linejoin:round;stroke-dasharray:none;stroke-opacity:1;paint-order:stroke markers fill;stop-color:#000000"
       d="m 10.004075,19.121173 c -1.4238886,3.039424 2.342169,4.371724 4.594902,1.690642 3.202672,3.608669 6.496348,1.194297 5.575255,-1.100462"
       id="path7824" /><path
       style="fill:none;fill-opacity:1;stroke:#000000;stroke-width:0.79375;stroke-linecap:round;stroke-linejoin:round;stroke-dasharray:none;stroke-opacity:1;paint-order:normal;stop-color:#000000"
       d="m 22.889183,18.104059 4.87622,-0.734341"
       id="path7889" /><path
       style="fill:none;fill-opacity:1;stroke:#000000;stroke-width:0.79375;stroke-linecap:round;stroke-linejoin:round;stroke-dasharray:none;stroke-opacity:1;paint-order:normal;stop-color:#000000"
       d="m 22.899838,20.260593 4.684517,0.851137"
       id="path7891" /><path
       style="fill:none;fill-opacity:1;stroke:#000000;stroke-width:0.79375;stroke-linecap:round;stroke-linejoin:round;stroke-dasharray:none;stroke-opacity:1;paint-order:normal;stop-color:#000000"
       d="M 8.2565339,17.019465 5.9675926,15.975012"
       id="path7893" /><path
       style="fill:none;fill-opacity:1;stroke:#000000;stroke-width:0.79375;stroke-linecap:round;stroke-linejoin:round;stroke-dasharray:none;stroke-opacity:1;paint-order:normal;stop-color:#000000"
       d="M 7.7354506,18.902572 5.5452359,18.75928"
       id="path7895" /></g><g
     id="g9015"
     transform="matrix(0.28264314,-0.01976433,0.01976433,0.28264314,-1.7068402,7.7548923)"
     clip-path="url(#clipPath9018)"><path
       id="path2"
       d="M 0.39687442,27.913541 V 38.496874 H 53.31354 106.23021 V 27.913541 17.330208 H 53.31354 0.39687442 v 10.583333"
       stroke="none"
       fill="#fcf434"
       fill-rule="evenodd"
       style="stroke-width:0.264583" /><path
       id="path3"
       d="M 0.39687442,70.246874 V 80.830207 H 53.31354 106.23021 V 70.246874 59.663541 H 53.31354 0.39687442 v 10.583333"
       stroke="none"
       fill="#2c2c2c"
       fill-rule="evenodd"
       style="stroke-width:0.264583" /><path
       id="path0"
       d="M 0.39687442,55.694791 V 64.95521 H 53.31354 106.23021 V 55.694791 46.434374 H 53.31354 0.39687442 v 9.260417"
       stroke="none"
       fill="#9c5cd4"
       fill-rule="evenodd"
       style="stroke-width:0.264583" /><path
       id="path1"
       d="m 0.39687442,41.142708 v 7.9375 H 53.31354 106.23021 v -7.9375 -7.9375 H 53.31354 0.39687442 v 7.9375"
       stroke="none"
       fill="#fcfcfc"
       fill-rule="evenodd"
       style="stroke-width:0.264583" /></g><metadata
     id="metadata4277"><rdf:RDF><cc:Work
         rdf:about=""><dc:title>Gutkato, koro, neduumuloj</dc:title><dc:creator><cc:Agent><dc:title>Tirifto</dc:title></cc:Agent></dc:creator><dc:subject><rdf:Bag><rdf:li>gutkato</rdf:li><rdf:li>gutkatoj</rdf:li><rdf:li>federujo</rdf:li></rdf:Bag></dc:subject><cc:license
           rdf:resource="http://artlibre.org/licence/lal" /><dc:description>Gutkato, destinita al uzo kiel glumarko aŭ propra bildosigno, ekzemple en Federujo aŭ aliaj retaj komunikiloj.</dc:description><dc:date>2024</dc:date></cc:Work><cc:License
         rdf:about="http://artlibre.org/licence/lal"><cc:permits
           rdf:resource="http://creativecommons.org/ns#Reproduction" /><cc:permits
           rdf:resource="http://creativecommons.org/ns#Distribution" /><cc:permits
           rdf:resource="http://creativecommons.org/ns#DerivativeWorks" /><cc:requires
           rdf:resource="http://creativecommons.org/ns#ShareAlike" /><cc:requires
           rdf:resource="http://creativecommons.org/ns#Notice" /><cc:requires
           rdf:resource="http://creativecommons.org/ns#Attribution" /></cc:License></rdf:RDF></metadata><path
     style="fill:none;fill-opacity:1;stroke:#000000;stroke-width:1.05833;stroke-linecap:round;stroke-linejoin:round;stroke-dasharray:none;stroke-opacity:1;stop-color:#000000"
     d="m 7.8295641,12.453588 c -4.6092264,0.322308 -7.52781444,6.294852 -3.0513498,10.119633 3.9977238,3.415735 6.3221737,5.043679 9.1821357,7.487285 2.49204,-2.817855 4.567304,-4.753457 8.050745,-8.692325 3.900593,-4.410563 0.17919,-9.918793 -4.430037,-9.596484 -2.279213,0.159378 -3.581671,1.84816 -4.683248,3.093769 C 11.633594,13.78529 10.108778,12.29421 7.8295641,12.453588 Z"
     id="path3500"
     clip-path="none" /><g
     id="use414"
     transform="matrix(-0.58778525,0.80901699,0.80901699,0.58778525,5.6024439,-4.1594361)"><path
       style="fill:#ffdb26;fill-opacity:1;stroke:#000000;stroke-width:0.79375;stroke-linecap:round;stroke-linejoin:round;stroke-dasharray:none;stroke-opacity:1;paint-order:markers fill stroke;stop-color:#000000"
       d="m 9.8210863,30.007784 c 0,-5.108613 0.8181757,-6.714531 2.7781057,-6.713661 1.95993,8.7e-4 2.778105,1.584391 2.778105,6.713661"
       id="path2192" /><g
       id="g2200"
       transform="translate(-0.0585258)"><path
         style="fill:#ffdb26;fill-opacity:1;stroke:#000000;stroke-width:0.529167;stroke-linecap:round;stroke-linejoin:round;stroke-dasharray:none;stroke-opacity:1;paint-order:markers fill stroke;stop-color:#000000"
         d="m 11.599399,23.694455 v 1.058284"
         id="path2194" /><path
         style="fill:#ffdb26;fill-opacity:1;stroke:#000000;stroke-width:0.529167;stroke-linecap:round;stroke-linejoin:round;stroke-dasharray:none;stroke-opacity:1;paint-order:markers fill stroke;stop-color:#000000"
         d="m 12.657717,23.661518 v 1.058284"
         id="path2196" /><path
         style="fill:#ffdb26;fill-opacity:1;stroke:#000000;stroke-width:0.529167;stroke-linecap:round;stroke-linejoin:round;stroke-dasharray:none;stroke-opacity:1;paint-order:markers fill stroke;stop-color:#000000"
         d="m 13.716036,23.694455 v 1.058284"
         id="path2198" /></g></g><g
     id="g457"
     transform="matrix(-0.74314483,-0.66913061,-0.66913061,0.74314483,33.071772,11.213239)"><path
       style="fill:#ffdb26;fill-opacity:1;stroke:#000000;stroke-width:0.79375;stroke-linecap:round;stroke-linejoin:round;stroke-dasharray:none;stroke-opacity:1;paint-order:markers fill stroke;stop-color:#000000"
       d="m 9.8210863,28.420283 c 0,-3.614558 0.8181757,-5.12703 2.7781057,-5.12616 1.95993,8.7e-4 2.778105,1.512491 2.778105,5.12616"
       id="path447" /><g
       id="g455"
       transform="translate(-0.0585258)"><path
         style="fill:#ffdb26;fill-opacity:1;stroke:#000000;stroke-width:0.529167;stroke-linecap:round;stroke-linejoin:round;stroke-dasharray:none;stroke-opacity:1;paint-order:markers fill stroke;stop-color:#000000"
         d="m 11.599399,23.694455 v 1.058284"
         id="path449" /><path
         style="fill:#ffdb26;fill-opacity:1;stroke:#000000;stroke-width:0.529167;stroke-linecap:round;stroke-linejoin:round;stroke-dasharray:none;stroke-opacity:1;paint-order:markers fill stroke;stop-color:#000000"
         d="m 12.657717,23.661518 v 1.058284"
         id="path451" /><path
         style="fill:#ffdb26;fill-opacity:1;stroke:#000000;stroke-width:0.529167;stroke-linecap:round;stroke-linejoin:round;stroke-dasharray:none;stroke-opacity:1;paint-order:markers fill stroke;stop-color:#000000"
         d="m 13.716036,23.694455 v 1.058284"
         id="path453" /></g></g></svg>
